HIERARCHY
ROOT f_avg_root
{
	OFFSET 0.000000 0.000000 0.000000
	CHANNELS 6 Xposition Yposition Zposition Xrotation Yrotation Zrotation
	JOINT f_avg_Pelvis
	{
		OFFSET -0.087631 90.931465 2.782112
		CHANNELS 6 Xposition Yposition Zposition Xrotation Yrotation Zrotation
		JOINT f_avg_L_Hip
		{
			OFFSET 7.136119 -8.958382 -0.804619
			CHANNELS 6 Xposition Yposition Zposition Xrotation Yrotation Zrotation
			JOINT f_avg_L_Knee
			{
				OFFSET 3.066892 -36.420944 -0.668891
				CHANNELS 6 Xposition Yposition Zposition Xrotation Yrotation Zrotation
				JOINT f_avg_L_Ankle
				{
					OFFSET -1.155390 -38.334850 -4.350160
					CHANNELS 6 Xposition Yposition Zposition Xrotation Yrotation Zrotation
					JOINT f_avg_L_Foot
					{
						OFFSET 2.333768 -5.464478 11.437012
						CHANNELS 6 Xposition Yposition Zposition Xrotation Yrotation Zrotation
						End Site
						{
							OFFSET 0.000000 12.888453 0.000000
						}
					}
				}
			}
		}
		JOINT f_avg_R_Hip
		{
			OFFSET -6.901202 -8.896049 -0.479568
			CHANNELS 6 Xposition Yposition Zposition Xrotation Yrotation Zrotation
			JOINT f_avg_R_Knee
			{
				OFFSET -3.615239 -37.065048 -0.918532
				CHANNELS 6 Xposition Yposition Zposition Xrotation Yrotation Zrotation
				JOINT f_avg_R_Ankle
				{
					OFFSET 1.402864 -38.363777 -4.189160
					CHANNELS 6 Xposition Yposition Zposition Xrotation Yrotation Zrotation
					JOINT f_avg_R_Foot
					{
						OFFSET -2.204322 -4.640959 11.789971
						CHANNELS 6 Xposition Yposition Zposition Xrotation Yrotation Zrotation
						End Site
						{
							OFFSET 0.000000 12.860830 0.000000
						}
					}
				}
			}
		}
		JOINT f_avg_Spine1
		{
			OFFSET -0.250821 10.325684 -2.218514
			CHANNELS 6 Xposition Yposition Zposition Xrotation Yrotation Zrotation
			JOINT f_avg_Spine2
			{
				OFFSET 0.358096 12.765762 -0.171301
				CHANNELS 6 Xposition Yposition Zposition Xrotation Yrotation Zrotation
				JOINT f_avg_Spine3
				{
					OFFSET 0.202718 4.907227 2.786721
					CHANNELS 6 Xposition Yposition Zposition Xrotation Yrotation Zrotation
					JOINT f_avg_Neck
					{
						OFFSET -0.196263 20.824318 -4.976548
						CHANNELS 6 Xposition Yposition Zposition Xrotation Yrotation Zrotation
						JOINT f_avg_Head
						{
							OFFSET 0.351716 6.232193 5.020525
							CHANNELS 6 Xposition Yposition Zposition Xrotation Yrotation Zrotation
							End Site
							{
								OFFSET 0.000000 8.010590 0.000000
							}
						}
					}
					JOINT f_avg_L_Collar
					{
						OFFSET 7.529828 11.778038 -3.687482
						CHANNELS 6 Xposition Yposition Zposition Xrotation Yrotation Zrotation
						JOINT f_avg_L_Shoulder
						{
							OFFSET 8.531712 3.173889 -0.729283
							CHANNELS 6 Xposition Yposition Zposition Xrotation Yrotation Zrotation
							JOINT f_avg_L_Elbow
							{
								OFFSET 25.124733 -1.196655 -2.751844
								CHANNELS 6 Xposition Yposition Zposition Xrotation Yrotation Zrotation
								JOINT f_avg_L_Wrist
								{
									OFFSET 23.801907 0.900681 0.004375
									CHANNELS 6 Xposition Yposition Zposition Xrotation Yrotation Zrotation
									JOINT f_avg_L_Hand
									{
										OFFSET 7.966774 -0.968246 -1.320559
										CHANNELS 6 Xposition Yposition Zposition Xrotation Yrotation Zrotation
										End Site
										{
											OFFSET 0.000000 8.133316 0.000000
										}
									}
								}
							}
						}
					}
					JOINT f_avg_R_Collar
					{
						OFFSET -7.703282 11.560616 -4.181066
						CHANNELS 6 Xposition Yposition Zposition Xrotation Yrotation Zrotation
						JOINT f_avg_R_Shoulder
						{
							OFFSET -8.920284 3.278503 -0.980219
							CHANNELS 6 Xposition Yposition Zposition Xrotation Yrotation Zrotation
							JOINT f_avg_R_Elbow
							{
								OFFSET -24.598970 -1.315262 -2.016171
								CHANNELS 6 Xposition Yposition Zposition Xrotation Yrotation Zrotation
								JOINT f_avg_R_Wrist
								{
									OFFSET -24.517677 0.862183 -0.353151
									CHANNELS 6 Xposition Yposition Zposition Xrotation Yrotation Zrotation
									JOINT f_avg_R_Hand
									{
										OFFSET -8.040016 -0.724777 -1.041933
										CHANNELS 6 Xposition Yposition Zposition Xrotation Yrotation Zrotation
										End Site
										{
											OFFSET 0.000000 8.139587 0.000000
										}
									}
								}
							}
						}
					}
				}
			}
		}
	}
}
MOTION
Frames: 4
Frame Time: 0.041667
0.000000 0.000000 0.000000 -0.000003 -0.000003 -90.000207 -0.000003 301.842316 -0.000001 -4.263455 -14.678736 92.729906 7.136131 -8.958385 -0.804625 4.091133 4.103723 2.817898 3.066879 -36.420940 -0.668905 19.021939 -3.596293 -2.597838 -1.155359 -38.334862 -4.350163 0.373590 10.839014 -4.363744 2.333731 -5.464500 11.437015 -10.485712 0.658430 8.133293 -6.901163 -8.896039 -0.479570 -4.582098 -3.364445 -0.344529 -3.615360 -37.065060 -0.918533 25.664050 -0.365111 4.034709 1.402859 -38.363758 -4.189159 1.717073 -8.933763 6.659384 -2.204368 -4.640944 11.789983 -8.859372 0.138336 -10.403322 -0.250809 10.325684 -2.218518 8.836826 -0.246272 -2.291866 0.358130 12.765760 -0.171298 2.061928 0.403811 -1.089727 0.202759 4.907229 2.786722 3.190357 -1.371209 -0.659252 -0.196204 20.824318 -4.976546 1.690641 -4.351855 2.086660 0.351667 6.232230 5.020525 9.043409 -2.508141 3.033840 7.529914 11.778038 -3.687480 3.934215 0.262318 -21.867291 8.531745 3.173923 -0.729282 1.273880 -16.319135 -55.772080 25.124737 -1.196656 -2.751847 6.581264 -20.704089 1.650764 23.801888 0.900681 0.004354 -0.084534 -2.614550 -2.077793 7.966765 -0.968246 -1.320583 -0.000002 -0.000001 0.000001 -7.703179 11.560614 -4.181062 2.367482 1.114901 21.340718 -8.920252 3.278471 -0.980219 2.041389 13.140984 53.982438 -24.598972 -1.315273 -2.016164 4.742391 13.703106 -1.711901 -24.517660 0.862167 -0.353138 3.182395 1.623096 4.443088 -8.040023 -0.724822 -1.041909 0.000002 0.000000 -0.000000 
0.000000 0.000000 0.000000 -0.000003 -0.000003 -90.000207 0.097660 301.709137 -0.073242 -3.894923 -14.596758 92.744933 7.136143 -8.958391 -0.804620 4.045439 4.106212 2.818994 3.066876 -36.420948 -0.668887 19.176782 -3.546037 -2.600031 -1.155364 -38.334831 -4.350173 0.366802 10.828189 -4.369991 2.333679 -5.464493 11.437027 -10.513825 0.659970 8.136886 -6.901202 -8.896049 -0.479569 -4.480152 -3.368856 -0.326933 -3.615229 -37.065060 -0.918531 25.551869 -0.365152 4.008858 1.402908 -38.363766 -4.189163 1.713998 -8.937758 6.638240 -2.204376 -4.640959 11.789972 -8.876016 0.109077 -10.391633 -0.250823 10.325674 -2.218515 8.802227 -0.227479 -2.291566 0.358136 12.765761 -0.171299 2.081098 0.399836 -1.081855 0.202740 4.907228 2.786721 3.167800 -1.358582 -0.650248 -0.196255 20.824318 -4.976548 1.644877 -4.387671 2.085212 0.351640 6.232212 5.020524 8.995200 -2.524031 3.047992 7.529858 11.778042 -3.687481 3.927699 0.137115 -21.862925 8.531712 3.173892 -0.729281 1.283851 -16.455544 -55.777589 25.124737 -1.196650 -2.751841 6.717381 -20.761142 1.615057 23.801899 0.900686 0.004377 -0.055202 -2.623827 -2.084126 7.966766 -0.968185 -1.320543 -0.000003 0.000001 0.000000 -7.703241 11.560617 -4.181063 2.341237 1.263813 21.338054 -8.920246 3.278490 -0.980217 1.995858 13.261503 53.971830 -24.598976 -1.315225 -2.016174 4.779479 13.717290 -1.696773 -24.517651 0.862200 -0.353161 3.205122 1.621534 4.442480 -8.040024 -0.724794 -1.041922 0.000000 -0.000000 -0.000000 
0.000000 0.000000 0.000000 -0.000003 -0.000003 -90.000207 0.146486 301.575958 -0.036620 -3.890567 -14.618377 92.759788 7.136152 -8.958385 -0.804621 4.037790 4.144248 2.814873 3.066888 -36.420952 -0.668886 19.386450 -3.520809 -2.626572 -1.155386 -38.334846 -4.350165 0.322116 10.819970 -4.341221 2.333721 -5.464486 11.437029 -10.585294 0.677335 8.144984 -6.901180 -8.896041 -0.479570 -4.568308 -3.351895 -0.352917 -3.615247 -37.065063 -0.918531 25.859564 -0.350071 4.050734 1.402832 -38.363777 -4.189163 1.686609 -8.944258 6.637317 -2.204370 -4.640954 11.789974 -8.938724 0.114782 -10.419458 -0.250778 10.325685 -2.218513 8.808693 -0.254428 -2.284262 0.358085 12.765754 -0.171297 2.073928 0.386608 -1.067600 0.202821 4.907228 2.786721 3.181725 -1.377810 -0.646927 -0.196267 20.824322 -4.976547 1.663554 -4.397786 2.088063 0.351717 6.232221 5.020526 9.015880 -2.513018 3.047604 7.529868 11.778036 -3.687479 3.931025 0.101308 -21.791746 8.531688 3.173904 -0.729282 1.253648 -16.518375 -55.796830 25.124741 -1.196708 -2.751853 6.765068 -20.900229 1.627296 23.801905 0.900664 0.004379 -0.074106 -2.619984 -2.096797 7.966775 -0.968216 -1.320563 -0.000001 -0.000000 -0.000000 -7.703216 11.560618 -4.181061 2.338862 1.241932 21.268545 -8.920285 3.278490 -0.980221 2.009250 13.235478 53.975741 -24.598988 -1.315232 -2.016165 4.758512 13.807867 -1.713074 -24.517670 0.862166 -0.353147 3.168614 1.617321 4.443429 -8.040019 -0.724809 -1.041911 0.000001 -0.000002 0.000001 
0.000000 0.000000 0.000000 -0.000003 -0.000003 -90.000207 0.048828 301.442841 -0.012207 -3.888787 -14.588347 92.773988 7.136097 -8.958380 -0.804622 4.123152 4.134733 2.782419 3.066895 -36.420952 -0.668892 19.148635 -3.535176 -2.613259 -1.155415 -38.334858 -4.350169 0.358499 10.828581 -4.358773 2.333726 -5.464504 11.437032 -10.520216 0.650104 8.139886 -6.901186 -8.896049 -0.479569 -4.462363 -3.369297 -0.316582 -3.615282 -37.065060 -0.918532 25.593969 -0.363289 4.030136 1.402877 -38.363766 -4.189159 1.709737 -8.944951 6.644246 -2.204380 -4.640930 11.789969 -8.881942 0.123788 -10.421391 -0.250818 10.325684 -2.218513 8.753017 -0.239706 -2.288959 0.358048 12.765763 -0.171301 2.084524 0.395124 -1.074787 0.202742 4.907228 2.786719 3.185225 -1.370050 -0.650162 -0.196183 20.824310 -4.976548 1.696281 -4.395243 2.096352 0.351709 6.232224 5.020525 9.036856 -2.516343 3.043102 7.529930 11.778041 -3.687481 3.938438 0.159663 -21.793237 8.531747 3.173892 -0.729285 1.300321 -16.465566 -55.826732 25.124729 -1.196672 -2.751839 6.770711 -20.845307 1.606817 23.801897 0.900717 0.004386 -0.054178 -2.627333 -2.113835 7.966765 -0.968200 -1.320576 -0.000002 0.000002 0.000000 -7.703196 11.560619 -4.181065 2.352094 1.207898 21.297063 -8.920306 3.278489 -0.980220 2.015033 13.214834 53.979446 -24.598978 -1.315264 -2.016160 4.780046 13.759343 -1.695137 -24.517675 0.862201 -0.353161 3.194387 1.624828 4.456873 -8.040018 -0.724822 -1.041920 0.000000 -0.000001 0.000001 
